<svg width="28" height="28" viewBox="0 0 28 28" fill="none" xmlns="http://www.w3.org/2000/svg">
<rect x="0.5" y="0.5" width="27" height="27" rx="13.5" fill="white"/>
<rect x="0.5" y="0.5" width="27" height="27" rx="13.5" stroke="#B82626"/>
<path d="M8.2567 8.25609H10.4105L11.8464 6.82019H16.1541L17.59 8.25609H19.7439C20.1247 8.25609 20.4899 8.40737 20.7592 8.67665C21.0285 8.94594 21.1798 9.31116 21.1798 9.69199V18.3074C21.1798 18.6882 21.0285 19.0534 20.7592 19.3227C20.4899 19.592 20.1247 19.7433 19.7439 19.7433H8.2567C7.87587 19.7433 7.51065 19.592 7.24137 19.3227C6.97208 19.0534 6.8208 18.6882 6.8208 18.3074V9.69199C6.8208 9.31116 6.97208 8.94594 7.24137 8.67665C7.51065 8.40737 7.87587 8.25609 8.2567 8.25609ZM14.0003 10.4099C13.0482 10.4099 12.1352 10.7881 11.462 11.4613C10.7887 12.1346 10.4105 13.0476 10.4105 13.9997C10.4105 14.9517 10.7887 15.8648 11.462 16.538C12.1352 17.2112 13.0482 17.5894 14.0003 17.5894C14.9523 17.5894 15.8654 17.2112 16.5386 16.538C17.2118 15.8648 17.59 14.9517 17.59 13.9997C17.59 13.0476 17.2118 12.1346 16.5386 11.4613C15.8654 10.7881 14.9523 10.4099 14.0003 10.4099ZM14.0003 11.8458C14.5715 11.8458 15.1194 12.0728 15.5233 12.4767C15.9272 12.8806 16.1541 13.4284 16.1541 13.9997C16.1541 14.5709 15.9272 15.1188 15.5233 15.5227C15.1194 15.9266 14.5715 16.1535 14.0003 16.1535C13.4291 16.1535 12.8812 15.9266 12.4773 15.5227C12.0734 15.1188 11.8464 14.5709 11.8464 13.9997C11.8464 13.4284 12.0734 12.8806 12.4773 12.4767C12.8812 12.0728 13.4291 11.8458 14.0003 11.8458Z" fill="#B82626"/>
</svg>
