<svg width="24" height="24" viewBox="0 0 24 24" fill="none" xmlns="http://www.w3.org/2000/svg">
<circle cx="9.29745" cy="21.189" r="1.78377" fill="#737373"/>
<circle cx="17.5133" cy="21.189" r="1.78377" fill="#737373"/>
<path d="M7.94586 12.27H7.13506C5.79167 12.27 4.70264 13.3591 4.70264 14.7024V14.7024C4.70264 16.0458 5.79167 17.1349 7.13506 17.1349H20.9188" stroke="#737373" stroke-width="2" stroke-linecap="round"/>
<path d="M2 1C1.44772 1 1 1.44772 1 2C1 2.55228 1.44772 3 2 3V1ZM2 3H3.04456V1H2V3ZM4.95173 4.39774L7.53287 12.5713L9.44004 11.9691L6.85889 3.79547L4.95173 4.39774ZM3.04456 3C3.91712 3 4.68897 3.56568 4.95173 4.39774L6.85889 3.79547C6.33338 2.13136 4.78968 1 3.04456 1V3Z" fill="#737373"/>
<path d="M8.36557 12.3513L6.04667 4.62158H20.6125L18.4918 10.9837C18.2196 11.8004 17.4553 12.3513 16.5944 12.3513H8.36557Z" stroke="#737373" stroke-width="2"/>
</svg>
