<svg width="24" height="24" viewBox="0 0 24 24" fill="none" xmlns="http://www.w3.org/2000/svg">
<circle cx="12" cy="12" r="10" fill="#B82626"/>
<path d="M10.552 14.288C10.552 13.8933 10.616 13.5467 10.744 13.248C10.872 12.9493 11.0373 12.6827 11.24 12.448C11.4427 12.2133 11.656 11.9947 11.88 11.792C12.1147 11.5893 12.3333 11.392 12.536 11.2C12.7387 11.008 12.904 10.8053 13.032 10.592C13.16 10.3787 13.224 10.1387 13.224 9.872C13.224 9.424 13.0427 9.06133 12.68 8.784C12.3173 8.50667 11.832 8.368 11.224 8.368C10.6373 8.368 10.1253 8.47467 9.688 8.688C9.26133 8.90133 8.904 9.20533 8.616 9.6L7.064 8.592C7.512 7.984 8.09867 7.50933 8.824 7.168C9.54933 6.816 10.408 6.64 11.4 6.64C12.1787 6.64 12.8613 6.75733 13.448 6.992C14.0347 7.216 14.4933 7.54667 14.824 7.984C15.1547 8.41067 15.32 8.93333 15.32 9.552C15.32 9.97867 15.2507 10.352 15.112 10.672C14.984 10.992 14.8133 11.2747 14.6 11.52C14.3973 11.7547 14.1787 11.9787 13.944 12.192C13.7093 12.3947 13.4853 12.5973 13.272 12.8C13.0693 13.0027 12.904 13.2213 12.776 13.456C12.648 13.6907 12.584 13.968 12.584 14.288H10.552ZM11.576 18.112C11.2027 18.112 10.8933 17.9893 10.648 17.744C10.4133 17.4987 10.296 17.2053 10.296 16.864C10.296 16.5227 10.4133 16.2347 10.648 16C10.8933 15.7547 11.2027 15.632 11.576 15.632C11.9493 15.632 12.2533 15.7547 12.488 16C12.7227 16.2347 12.84 16.5227 12.84 16.864C12.84 17.2053 12.7227 17.4987 12.488 17.744C12.2533 17.9893 11.9493 18.112 11.576 18.112Z" fill="white"/>
</svg>
