<svg width="24" height="24" viewBox="0 0 24 24" fill="none" xmlns="http://www.w3.org/2000/svg">
<path d="M3 9.84067V22C3 22.5523 3.44771 23 4 23H8.86111C9.4134 23 9.86111 22.5523 9.86111 22V16.65C9.86111 16.0977 10.3088 15.65 10.8611 15.65H14.1389C14.6912 15.65 15.1389 16.0977 15.1389 16.65V22C15.1389 22.5523 15.5866 23 16.1389 23H21C21.5523 23 22 22.5523 22 22V9.84067C22 9.53118 21.8567 9.23913 21.6119 9.04975L13.1119 2.47343C12.7516 2.19466 12.2484 2.19466 11.8881 2.47343L3.38808 9.04975C3.1433 9.23913 3 9.53118 3 9.84067Z" stroke="#737373" stroke-width="2"/>
</svg>
