<svg width="33" height="20" viewBox="0 0 33 20" fill="none" xmlns="http://www.w3.org/2000/svg">
<g clip-path="url(#clip0_266_6998)">
<path d="M11.8096 2.13965H20.5627V17.8676H11.8096V2.13965Z" fill="#FF5F00"/>
<path d="M12.3657 10.0037C12.3657 6.8081 13.8662 3.97367 16.1725 2.13962C14.4776 0.805823 12.338 0 10.0038 0C4.4738 0 0 4.4738 0 10.0037C0 15.5334 4.4738 20.0073 10.0037 20.0073C12.3378 20.0073 14.4775 19.2015 16.1725 17.8676C13.8662 16.0614 12.3657 13.1992 12.3657 10.0037Z" fill="#EB001B"/>
<path d="M32.3727 10.0037C32.3727 15.5334 27.8989 20.0073 22.3691 20.0073C20.0349 20.0073 17.8953 19.2015 16.2002 17.8676C18.5344 16.0337 20.0072 13.1992 20.0072 10.0037C20.0072 6.8081 18.5065 3.97367 16.2002 2.13962C17.8951 0.805823 20.0349 0 22.3691 0C27.8989 0 32.3727 4.50165 32.3727 10.0037Z" fill="#F79E1B"/>
</g>
<defs>
<clipPath id="clip0_266_6998">
<rect width="32.4051" height="20" fill="white"/>
</clipPath>
</defs>
</svg>
