<svg width="72" height="72" viewBox="0 0 72 72" fill="none" xmlns="http://www.w3.org/2000/svg">
<mask id="path-1-inside-1_266_7622" fill="white">
<path d="M66 36C66 42.4243 63.9377 48.6789 60.1167 53.8433C56.2957 59.0078 50.9177 62.8092 44.7744 64.6882C38.631 66.5671 32.0467 66.4244 25.9906 64.2809C19.9344 62.1375 14.7263 58.1065 11.1326 52.7814C7.53903 47.4562 5.74977 41.1181 6.02819 34.6998C6.30661 28.2816 8.63801 22.1222 12.6793 17.1282C16.7205 12.1343 22.2582 8.56949 28.4772 6.95853C34.6962 5.34757 41.2681 5.77553 47.2257 8.17944L44.9806 13.7435C40.2145 11.8204 34.957 11.4781 29.9817 12.7668C25.0065 14.0556 20.5764 16.9074 17.3434 20.9026C14.1104 24.8978 12.2453 29.8253 12.0225 34.9599C11.7998 40.0945 13.2312 45.165 16.1061 49.4251C18.981 53.6852 23.1475 56.91 27.9924 58.6247C32.8374 60.3395 38.1048 60.4537 43.0195 58.9505C47.9342 57.4474 52.2366 54.4062 55.2934 50.2747C58.3502 46.1431 60 41.1394 60 36H66Z"/>
</mask>
<path d="M66 36C66 42.4243 63.9377 48.6789 60.1167 53.8433C56.2957 59.0078 50.9177 62.8092 44.7744 64.6882C38.631 66.5671 32.0467 66.4244 25.9906 64.2809C19.9344 62.1375 14.7263 58.1065 11.1326 52.7814C7.53903 47.4562 5.74977 41.1181 6.02819 34.6998C6.30661 28.2816 8.63801 22.1222 12.6793 17.1282C16.7205 12.1343 22.2582 8.56949 28.4772 6.95853C34.6962 5.34757 41.2681 5.77553 47.2257 8.17944L44.9806 13.7435C40.2145 11.8204 34.957 11.4781 29.9817 12.7668C25.0065 14.0556 20.5764 16.9074 17.3434 20.9026C14.1104 24.8978 12.2453 29.8253 12.0225 34.9599C11.7998 40.0945 13.2312 45.165 16.1061 49.4251C18.981 53.6852 23.1475 56.91 27.9924 58.6247C32.8374 60.3395 38.1048 60.4537 43.0195 58.9505C47.9342 57.4474 52.2366 54.4062 55.2934 50.2747C58.3502 46.1431 60 41.1394 60 36H66Z" stroke="#00912F" stroke-width="8" mask="url(#path-1-inside-1_266_7622)"/>
<path d="M24 34.5L33 44.25L58.5 18" stroke="#00912F" stroke-width="6" stroke-linecap="square"/>
</svg>
