<svg width="60" height="30" viewBox="0 0 60 30" fill="none" xmlns="http://www.w3.org/2000/svg">
<path d="M19.2041 5.23855L1.00418 24.0057C-1.16383 26.2412 0.410334 30 3.51461 30H56.4858C59.4313 30 61.0651 26.5679 59.219 24.2585L50.0356 12.7704C48.7276 11.1342 46.2978 11.002 44.8222 12.4868L40.4535 16.8826C39.0708 18.2739 36.8244 18.2589 35.4602 16.8491L24.2277 5.2413C22.8517 3.8194 20.5816 3.81816 19.2041 5.23855Z" fill="white"/>
<path d="M43.4206 4.85294C43.4206 7.53315 41.2613 9.70588 38.5977 9.70588C35.934 9.70588 33.7747 7.53315 33.7747 4.85294C33.7747 2.17274 35.934 0 38.5977 0C41.2613 0 43.4206 2.17274 43.4206 4.85294Z" fill="white"/>
</svg>
