<svg width="24" height="24" viewBox="0 0 24 24" fill="none" xmlns="http://www.w3.org/2000/svg">
<rect x="2.25" y="4.92029" width="4.36486" height="4.36486" rx="0.25" fill="#B82626" stroke="#B82626" stroke-width="0.5"/>
<path d="M5.0575 7.10236C5.0575 7.44791 4.77738 7.72803 4.43183 7.72803C4.08628 7.72803 3.80615 7.44791 3.80615 7.10236C3.80615 6.75681 4.08628 6.47668 4.43183 6.47668C4.77738 6.47668 5.0575 6.75681 5.0575 7.10236Z" fill="#B82626" stroke="white" stroke-width="0.5"/>
<rect x="17.7217" y="2.29346" width="4.36486" height="4.36486" rx="0.25" fill="#B82626" stroke="#B82626" stroke-width="0.5"/>
<path d="M20.5287 4.47663C20.5287 4.82218 20.2486 5.1023 19.903 5.1023C19.5575 5.1023 19.2773 4.82218 19.2773 4.47663C19.2773 4.13108 19.5575 3.85095 19.903 3.85095C20.2486 3.85095 20.5287 4.13108 20.5287 4.47663Z" fill="#B82626" stroke="white" stroke-width="0.5"/>
<rect x="8.76855" y="0.25" width="6.50539" height="6.5054" rx="0.75" fill="#B82626" stroke="#B82626" stroke-width="0.5"/>
<path d="M10.6108 3.25962L11.6325 4.28124L14.0162 1.89746" stroke="white" stroke-width="0.5" stroke-linecap="round"/>
<path d="M11.6796 17.0268C12.9639 18.3501 13.6741 19.816 13.8687 20.3836L19.4147 19.2647C19.0255 17.9998 19.4633 17.1728 20.0471 15.6647C20.3869 14.7868 20.1292 12.6537 19.8136 10.9258C19.6199 9.86488 18.6849 8.68244 17.8701 9.38901C17.8048 8.98251 17.4865 8.63666 17.0748 8.64013C16.7152 8.64316 16.4325 8.73941 16.0919 8.99983C16.0398 8.72397 15.8659 8.47558 15.5992 8.38814C15.0968 8.22345 14.7755 8.33944 14.3277 8.70793L13.8578 6.25159C13.7813 5.85165 13.4128 5.57577 13.0075 5.615C12.571 5.65724 12.2528 6.04763 12.2995 6.48372L12.7985 11.1404C12.7985 11.1404 13.4309 13.5963 12.5552 14.1566C12.0251 14.4958 11.0671 13.8894 10.3936 13.3581C9.92447 12.988 9.2771 12.8917 8.75168 13.1763C8.60381 13.2564 8.5632 13.4496 8.66843 13.5808C9.29998 14.3682 10.5325 15.845 11.6796 17.0268Z" fill="#B82626"/>
<path d="M14.7931 11.1404L14.3277 8.70793M14.3277 8.70793L13.8578 6.25159C13.7813 5.85165 13.4128 5.57577 13.0075 5.615V5.615C12.571 5.65724 12.2528 6.04763 12.2995 6.48372L12.7985 11.1404C12.7985 11.1404 13.4309 13.5963 12.5552 14.1566C12.0251 14.4958 11.0671 13.8894 10.3936 13.3581C9.92447 12.988 9.2771 12.8917 8.75168 13.1763V13.1763C8.60381 13.2564 8.5632 13.4496 8.66843 13.5808C9.29998 14.3682 10.5325 15.845 11.6796 17.0268C12.9639 18.3501 13.6741 19.816 13.8687 20.3836L19.4147 19.2647C19.0255 17.9998 19.4633 17.1728 20.0471 15.6647C20.3869 14.7868 20.1292 12.6537 19.8136 10.9259C19.6199 9.86488 18.6849 8.68244 17.8701 9.38901V9.38901M14.3277 8.70793C14.7755 8.33944 15.0968 8.22345 15.5992 8.38814C15.8659 8.47558 16.0398 8.72397 16.0919 8.99983V8.99983M16.4958 11.1404L16.0919 8.99983M16.0919 8.99983C16.4325 8.73941 16.7152 8.64316 17.0748 8.64013C17.4865 8.63666 17.8048 8.98251 17.8701 9.38901V9.38901M18.1985 11.4323L17.8701 9.38901" stroke="#B86D6D" stroke-width="0.5"/>
<rect x="13.3839" y="20.1413" width="6.5054" height="2.61351" rx="0.25" transform="rotate(-11 13.3839 20.1413)" fill="#B82626" stroke="#B86D6D" stroke-width="0.5"/>
</svg>
