<svg width="24" height="24" viewBox="0 0 24 24" fill="none" xmlns="http://www.w3.org/2000/svg">
<path d="M17.7727 14.1499C14.6023 12.2899 9.43182 12.2899 6.23864 14.1499C4.79545 14.9999 4 16.1499 4 17.3799C4 18.6099 4.79545 19.7499 6.22727 20.5899C7.81818 21.5299 9.90909 21.9999 12 21.9999C14.0909 21.9999 16.1818 21.5299 17.7727 20.5899C19.2045 19.7399 20 18.5999 20 17.3599C19.9886 16.1299 19.2045 14.9899 17.7727 14.1499Z" fill="#B82626"/>
<path d="M11.7225 2C9.11741 2 6.99951 4.13 6.99951 6.75C6.99951 9.32 8.99809 11.4 11.6032 11.49C11.6828 11.48 11.7623 11.48 11.822 11.49C11.8418 11.49 11.8518 11.49 11.8717 11.49C11.8816 11.49 11.8816 11.49 11.8916 11.49C14.437 11.4 16.4356 9.32 16.4455 6.75C16.4455 4.13 14.3276 2 11.7225 2Z" fill="#B82626"/>
</svg>
