<svg width="40" height="40" viewBox="0 0 40 40" fill="none" xmlns="http://www.w3.org/2000/svg">
<g filter="url(#filter0_d_274_10190)">
<rect x="4" y="2" width="32" height="32" rx="16" fill="white"/>
<path fill-rule="evenodd" clip-rule="evenodd" d="M20.1931 14.3236L19.15 13.4544C17.814 12.341 15.8177 12.5742 14.7742 13.9655C13.867 15.1751 13.9873 16.8678 15.0565 17.937L20.1931 23.0736L25.3298 17.937C26.3989 16.8678 26.5192 15.1751 25.612 13.9655C24.5685 12.5742 22.5723 12.341 21.2362 13.4544L20.1931 14.3236Z" fill="#ED3E24"/>
<path d="M19.15 13.4544L18.6699 14.0305H18.6699L19.15 13.4544ZM20.1931 14.3236L19.713 14.8998L20.1931 15.2999L20.6733 14.8998L20.1931 14.3236ZM14.7742 13.9655L14.1742 13.5155L14.7742 13.9655ZM15.0565 17.937L14.5261 18.4673H14.5261L15.0565 17.937ZM20.1931 23.0736L19.6628 23.6039L20.1931 24.1343L20.7234 23.6039L20.1931 23.0736ZM25.3298 17.937L25.8601 18.4673V18.4673L25.3298 17.937ZM25.612 13.9655L25.012 14.4155L25.612 13.9655ZM21.2362 13.4544L20.7561 12.8782L20.7561 12.8782L21.2362 13.4544ZM18.6699 14.0305L19.713 14.8998L20.6733 13.7474L19.6302 12.8782L18.6699 14.0305ZM15.3742 14.4155C16.1601 13.3676 17.6636 13.192 18.6699 14.0305L19.6302 12.8782C17.9643 11.49 15.4753 11.7807 14.1742 13.5155L15.3742 14.4155ZM15.5868 17.4066C14.7815 16.6014 14.6909 15.3265 15.3742 14.4155L14.1742 13.5155C13.043 15.0237 13.193 17.1342 14.5261 18.4673L15.5868 17.4066ZM20.7234 22.5433L15.5868 17.4066L14.5261 18.4673L19.6628 23.6039L20.7234 22.5433ZM20.7234 23.6039L25.8601 18.4673L24.7994 17.4066L19.6628 22.5433L20.7234 23.6039ZM25.8601 18.4673C27.1932 17.1342 27.3432 15.0237 26.212 13.5155L25.012 14.4155C25.6953 15.3265 25.6047 16.6014 24.7994 17.4066L25.8601 18.4673ZM26.212 13.5155C24.9109 11.7807 22.4219 11.49 20.7561 12.8782L21.7163 14.0305C22.7226 13.192 24.2261 13.3676 25.012 14.4155L26.212 13.5155ZM20.7561 12.8782L19.713 13.7475L20.6733 14.8998L21.7163 14.0305L20.7561 12.8782Z" fill="#ED3E24"/>
</g>
<defs>
<filter id="filter0_d_274_10190" x="0" y="0" width="40" height="40" filterUnits="userSpaceOnUse" color-interpolation-filters="sRGB">
<feFlood flood-opacity="0" result="BackgroundImageFix"/>
<feColorMatrix in="SourceAlpha" type="matrix" values="0 0 0 0 0 0 0 0 0 0 0 0 0 0 0 0 0 0 127 0" result="hardAlpha"/>
<feOffset dy="2"/>
<feGaussianBlur stdDeviation="2"/>
<feComposite in2="hardAlpha" operator="out"/>
<feColorMatrix type="matrix" values="0 0 0 0 0.113725 0 0 0 0 0.113725 0 0 0 0 0.113725 0 0 0 0.25 0"/>
<feBlend mode="normal" in2="BackgroundImageFix" result="effect1_dropShadow_274_10190"/>
<feBlend mode="normal" in="SourceGraphic" in2="effect1_dropShadow_274_10190" result="shape"/>
</filter>
</defs>
</svg>
