<svg width="24" height="24" viewBox="0 0 24 24" fill="none" xmlns="http://www.w3.org/2000/svg">
<path fill-rule="evenodd" clip-rule="evenodd" d="M12.3313 5.69763L10.5432 4.20749C8.25276 2.29883 4.83064 2.69855 3.04178 5.08369C1.48653 7.15735 1.69275 10.0591 3.52563 11.8919L12.3313 20.6976L21.137 11.8919C22.9699 10.0591 23.1761 7.15735 21.6209 5.08369C19.832 2.69855 16.4099 2.29883 14.1195 4.20749L12.3313 5.69763Z" fill="#B82626"/>
<path d="M10.5432 4.20749L11.1833 3.43927V3.43927L10.5432 4.20749ZM12.3313 5.69763L11.6911 6.46585L12.3313 6.99934L12.9715 6.46585L12.3313 5.69763ZM3.04178 5.08369L2.24178 4.48369L3.04178 5.08369ZM3.52563 11.8919L4.23273 11.1848L3.52563 11.8919ZM12.3313 20.6976L11.6242 21.4047L12.3313 22.1118L13.0384 21.4047L12.3313 20.6976ZM21.137 11.8919L20.4299 11.1848L21.137 11.8919ZM21.6209 5.08369L22.4209 4.48369V4.48369L21.6209 5.08369ZM14.1195 4.20749L13.4793 3.43927V3.43927L14.1195 4.20749ZM9.90298 4.97571L11.6911 6.46585L12.9715 4.92941L11.1833 3.43927L9.90298 4.97571ZM3.84178 5.68369C5.2872 3.75647 8.05231 3.43349 9.90298 4.97571L11.1833 3.43927C8.45322 1.16416 4.37408 1.64063 2.24178 4.48369L3.84178 5.68369ZM4.23273 11.1848C2.75175 9.70384 2.58513 7.35923 3.84178 5.68369L2.24178 4.48369C0.387945 6.95547 0.633753 10.4143 2.81852 12.599L4.23273 11.1848ZM13.0384 19.9905L4.23273 11.1848L2.81852 12.599L11.6242 21.4047L13.0384 19.9905ZM13.0384 21.4047L21.8441 12.599L20.4299 11.1848L11.6242 19.9905L13.0384 21.4047ZM21.8441 12.599C24.0289 10.4143 24.2747 6.95547 22.4209 4.48369L20.8209 5.68369C22.0775 7.35923 21.9109 9.70384 20.4299 11.1848L21.8441 12.599ZM22.4209 4.48369C20.2886 1.64063 16.2094 1.16416 13.4793 3.43927L14.7597 4.97571C16.6103 3.43349 19.3755 3.75647 20.8209 5.68369L22.4209 4.48369ZM13.4793 3.43927L11.6911 4.92941L12.9715 6.46585L14.7597 4.97571L13.4793 3.43927Z" fill="#B82626"/>
</svg>
