<svg width="24" height="24" viewBox="0 0 24 24" fill="none" xmlns="http://www.w3.org/2000/svg">
<path d="M10.5432 4.20741L11.1833 3.43919V3.43919L10.5432 4.20741ZM12.3313 5.69755L11.6911 6.46577L12.3313 6.99926L12.9715 6.46577L12.3313 5.69755ZM3.04178 5.08361L2.24178 4.48361L3.04178 5.08361ZM3.52562 11.8918L4.23273 11.1847L3.52562 11.8918ZM12.3313 20.6975L11.6242 21.4047L12.3313 22.1118L13.0384 21.4047L12.3313 20.6975ZM21.137 11.8918L20.4299 11.1847L21.137 11.8918ZM21.6209 5.08361L22.4209 4.48361V4.48361L21.6209 5.08361ZM14.1195 4.20741L13.4793 3.43919V3.43919L14.1195 4.20741ZM9.90298 4.97563L11.6911 6.46577L12.9715 4.92933L11.1833 3.43919L9.90298 4.97563ZM3.84178 5.68361C5.28719 3.75639 8.05231 3.43341 9.90298 4.97563L11.1833 3.43919C8.45322 1.16408 4.37408 1.64055 2.24178 4.48361L3.84178 5.68361ZM4.23273 11.1847C2.75175 9.70376 2.58512 7.35915 3.84178 5.68361L2.24178 4.48361C0.387943 6.95539 0.633752 10.4142 2.81852 12.599L4.23273 11.1847ZM13.0384 19.9904L4.23273 11.1847L2.81852 12.599L11.6242 21.4047L13.0384 19.9904ZM13.0384 21.4047L21.8441 12.599L20.4299 11.1847L11.6242 19.9904L13.0384 21.4047ZM21.8441 12.599C24.0289 10.4142 24.2747 6.95539 22.4209 4.48361L20.8209 5.68361C22.0775 7.35915 21.9109 9.70376 20.4299 11.1847L21.8441 12.599ZM22.4209 4.48361C20.2886 1.64055 16.2094 1.16408 13.4793 3.43919L14.7597 4.97563C16.6103 3.43341 19.3755 3.75639 20.8209 5.68361L22.4209 4.48361ZM13.4793 3.43919L11.6911 4.92933L12.9715 6.46577L14.7597 4.97563L13.4793 3.43919Z" fill="#737373"/>
</svg>
