<svg width="24" height="24" viewBox="0 0 24 24" fill="none" xmlns="http://www.w3.org/2000/svg">
<path d="M10.4063 3.10176C11.2066 2.0463 12.7934 2.0463 13.5937 3.10176L14.2397 3.95379C14.6764 4.52969 15.3898 4.8252 16.1058 4.72675L17.1651 4.58111C18.4773 4.40068 19.5993 5.52266 19.4189 6.83489L19.2732 7.89419C19.1748 8.61019 19.4703 9.3236 20.0462 9.76028L20.8982 10.4063C21.9537 11.2066 21.9537 12.7934 20.8982 13.5937L20.0462 14.2397C19.4703 14.6764 19.1748 15.3898 19.2732 16.1058L19.4189 17.1651C19.5993 18.4773 18.4773 19.5993 17.1651 19.4189L16.1058 19.2732C15.3898 19.1748 14.6764 19.4703 14.2397 20.0462L13.5937 20.8982C12.7934 21.9537 11.2066 21.9537 10.4063 20.8982L9.76028 20.0462C9.3236 19.4703 8.61019 19.1748 7.89419 19.2732L6.83489 19.4189C5.52266 19.5993 4.40068 18.4773 4.58111 17.1651L4.72675 16.1058C4.8252 15.3898 4.52969 14.6764 3.95379 14.2397L3.10176 13.5937C2.0463 12.7934 2.0463 11.2066 3.10176 10.4063L3.95379 9.76028C4.52969 9.3236 4.8252 8.61019 4.72675 7.89419L4.58111 6.83489C4.40068 5.52266 5.52266 4.40068 6.83489 4.58111L7.89419 4.72675C8.61019 4.8252 9.3236 4.52969 9.76028 3.95379L10.4063 3.10176Z" fill="#B82626"/>
<circle cx="12" cy="12" r="3" fill="white"/>
</svg>
