<svg width="40" height="40" viewBox="0 0 40 40" fill="none" xmlns="http://www.w3.org/2000/svg">
<g filter="url(#filter0_d_274_10175)">
<rect x="4" y="2" width="32" height="32" rx="16" fill="white"/>
<path d="M19.0289 12.805L19.5091 12.2288L19.0289 12.805ZM20.221 13.7984L19.7409 14.3746L20.221 14.7747L20.7012 14.3746L20.221 13.7984ZM14.028 13.3891L13.428 12.9391L13.428 12.9391L14.028 13.3891ZM14.3506 17.928L13.8203 18.4583H13.8203L14.3506 17.928ZM20.221 23.7984L19.6907 24.3287L20.221 24.8591L20.7514 24.3287L20.221 23.7984ZM26.0915 17.928L26.6218 18.4583L26.6218 18.4583L26.0915 17.928ZM26.4141 13.3891L25.8141 13.8391V13.8391L26.4141 13.3891ZM21.4132 12.805L20.933 12.2288L20.933 12.2288L21.4132 12.805ZM18.5488 13.3812L19.7409 14.3746L20.7012 13.2223L19.5091 12.2288L18.5488 13.3812ZM14.628 13.8391C15.563 12.5925 17.3517 12.3835 18.5488 13.3812L19.5091 12.2288C17.6523 10.6816 14.8782 11.0056 13.428 12.9391L14.628 13.8391ZM14.8809 17.3976C13.9229 16.4396 13.8151 14.923 14.628 13.8391L13.428 12.9391C12.1672 14.6202 12.3344 16.9724 13.8203 18.4583L14.8809 17.3976ZM20.7514 23.2681L14.8809 17.3976L13.8203 18.4583L19.6907 24.3287L20.7514 23.2681ZM20.7514 24.3287L26.6218 18.4583L25.5612 17.3976L19.6907 23.2681L20.7514 24.3287ZM26.6218 18.4583C28.1077 16.9724 28.2749 14.6202 27.0141 12.9391L25.8141 13.8391C26.627 14.923 26.5192 16.4396 25.5612 17.3976L26.6218 18.4583ZM27.0141 12.9391C25.5639 11.0056 22.7897 10.6816 20.933 12.2288L21.8933 13.3812C23.0904 12.3835 24.8791 12.5925 25.8141 13.8391L27.0141 12.9391ZM20.933 12.2288L19.7409 13.2223L20.7012 14.3746L21.8933 13.3812L20.933 12.2288Z" fill="#ED3E24"/>
</g>
<defs>
<filter id="filter0_d_274_10175" x="0" y="0" width="40" height="40" filterUnits="userSpaceOnUse" color-interpolation-filters="sRGB">
<feFlood flood-opacity="0" result="BackgroundImageFix"/>
<feColorMatrix in="SourceAlpha" type="matrix" values="0 0 0 0 0 0 0 0 0 0 0 0 0 0 0 0 0 0 127 0" result="hardAlpha"/>
<feOffset dy="2"/>
<feGaussianBlur stdDeviation="2"/>
<feComposite in2="hardAlpha" operator="out"/>
<feColorMatrix type="matrix" values="0 0 0 0 0.113725 0 0 0 0 0.113725 0 0 0 0 0.113725 0 0 0 0.25 0"/>
<feBlend mode="normal" in2="BackgroundImageFix" result="effect1_dropShadow_274_10175"/>
<feBlend mode="normal" in="SourceGraphic" in2="effect1_dropShadow_274_10175" result="shape"/>
</filter>
</defs>
</svg>
